<svg id="visual" viewBox="0 0 900 150" width="900" height="150" xmlns="http://www.w3.org/2000/svg" xmlns:xlink="http://www.w3.org/1999/xlink" version="1.1"><path d="M0 33L13.7 39C27.3 45 54.7 57 82 62.5C109.3 68 136.7 67 163.8 71.7C191 76.3 218 86.7 245.2 85.5C272.3 84.3 299.7 71.7 327 68.3C354.3 65 381.7 71 409 69.7C436.3 68.3 463.7 59.7 491 52C518.3 44.3 545.7 37.7 573 41.5C600.3 45.3 627.7 59.7 654.8 67.5C682 75.3 709 76.7 736.2 77.2C763.3 77.7 790.7 77.3 818 78.8C845.3 80.3 872.7 83.7 886.3 85.3L900 87L900 151L886.3 151C872.7 151 845.3 151 818 151C790.7 151 763.3 151 736.2 151C709 151 682 151 654.8 151C627.7 151 600.3 151 573 151C545.7 151 518.3 151 491 151C463.7 151 436.3 151 409 151C381.7 151 354.3 151 327 151C299.7 151 272.3 151 245.2 151C218 151 191 151 163.8 151C136.7 151 109.3 151 82 151C54.7 151 27.3 151 13.7 151L0 151Z" fill="#c62368"></path><path d="M0 63L13.7 61.5C27.3 60 54.7 57 82 57.8C109.3 58.7 136.7 63.3 163.8 61.5C191 59.7 218 51.3 245.2 58.3C272.3 65.3 299.7 87.7 327 89.5C354.3 91.3 381.7 72.7 409 68.5C436.3 64.3 463.7 74.7 491 78.7C518.3 82.7 545.7 80.3 573 73.5C600.3 66.7 627.7 55.3 654.8 49.3C682 43.3 709 42.7 736.2 45.3C763.3 48 790.7 54 818 56C845.3 58 872.7 56 886.3 55L900 54L900 151L886.3 151C872.7 151 845.3 151 818 151C790.7 151 763.3 151 736.2 151C709 151 682 151 654.8 151C627.7 151 600.3 151 573 151C545.7 151 518.3 151 491 151C463.7 151 436.3 151 409 151C381.7 151 354.3 151 327 151C299.7 151 272.3 151 245.2 151C218 151 191 151 163.8 151C136.7 151 109.3 151 82 151C54.7 151 27.3 151 13.7 151L0 151Z" fill="#b0285e"></path><path d="M0 76L13.7 81.5C27.3 87 54.7 98 82 98.2C109.3 98.3 136.7 87.7 163.8 86.8C191 86 218 95 245.2 92.3C272.3 89.7 299.7 75.3 327 76.8C354.3 78.3 381.7 95.7 409 100.7C436.3 105.7 463.7 98.3 491 99C518.3 99.7 545.7 108.3 573 102.5C600.3 96.7 627.7 76.3 654.8 72.3C682 68.3 709 80.7 736.2 85.5C763.3 90.3 790.7 87.7 818 91C845.3 94.3 872.7 103.7 886.3 108.3L900 113L900 151L886.3 151C872.7 151 845.3 151 818 151C790.7 151 763.3 151 736.2 151C709 151 682 151 654.8 151C627.7 151 600.3 151 573 151C545.7 151 518.3 151 491 151C463.7 151 436.3 151 409 151C381.7 151 354.3 151 327 151C299.7 151 272.3 151 245.2 151C218 151 191 151 163.8 151C136.7 151 109.3 151 82 151C54.7 151 27.3 151 13.7 151L0 151Z" fill="#9a2a54"></path><path d="M0 94L13.7 90C27.3 86 54.7 78 82 78C109.3 78 136.7 86 163.8 93.7C191 101.3 218 108.7 245.2 104C272.3 99.3 299.7 82.7 327 83.8C354.3 85 381.7 104 409 113.3C436.3 122.7 463.7 122.3 491 113.2C518.3 104 545.7 86 573 86.8C600.3 87.7 627.7 107.3 654.8 117.3C682 127.3 709 127.7 736.2 121.3C763.3 115 790.7 102 818 99.5C845.3 97 872.7 105 886.3 109L900 113L900 151L886.3 151C872.7 151 845.3 151 818 151C790.7 151 763.3 151 736.2 151C709 151 682 151 654.8 151C627.7 151 600.3 151 573 151C545.7 151 518.3 151 491 151C463.7 151 436.3 151 409 151C381.7 151 354.3 151 327 151C299.7 151 272.3 151 245.2 151C218 151 191 151 163.8 151C136.7 151 109.3 151 82 151C54.7 151 27.3 151 13.7 151L0 151Z" fill="#842b4a"></path><path d="M0 121L13.7 114.8C27.3 108.7 54.7 96.3 82 97C109.3 97.7 136.7 111.3 163.8 112.2C191 113 218 101 245.2 94.5C272.3 88 299.7 87 327 88.2C354.3 89.3 381.7 92.7 409 94.8C436.3 97 463.7 98 491 103C518.3 108 545.7 117 573 117C600.3 117 627.7 108 654.8 102.3C682 96.7 709 94.3 736.2 100.2C763.3 106 790.7 120 818 126C845.3 132 872.7 130 886.3 129L900 128L900 151L886.3 151C872.7 151 845.3 151 818 151C790.7 151 763.3 151 736.2 151C709 151 682 151 654.8 151C627.7 151 600.3 151 573 151C545.7 151 518.3 151 491 151C463.7 151 436.3 151 409 151C381.7 151 354.3 151 327 151C299.7 151 272.3 151 245.2 151C218 151 191 151 163.8 151C136.7 151 109.3 151 82 151C54.7 151 27.3 151 13.7 151L0 151Z" fill="#6f2a41"></path><path d="M0 130L13.7 130.8C27.3 131.7 54.7 133.3 82 131.5C109.3 129.7 136.7 124.3 163.8 117C191 109.7 218 100.3 245.2 99.5C272.3 98.7 299.7 106.3 327 111.8C354.3 117.3 381.7 120.7 409 120.8C436.3 121 463.7 118 491 117.7C518.3 117.3 545.7 119.7 573 121.8C600.3 124 627.7 126 654.8 126C682 126 709 124 736.2 120C763.3 116 790.7 110 818 112C845.3 114 872.7 124 886.3 129L900 134L900 151L886.3 151C872.7 151 845.3 151 818 151C790.7 151 763.3 151 736.2 151C709 151 682 151 654.8 151C627.7 151 600.3 151 573 151C545.7 151 518.3 151 491 151C463.7 151 436.3 151 409 151C381.7 151 354.3 151 327 151C299.7 151 272.3 151 245.2 151C218 151 191 151 163.8 151C136.7 151 109.3 151 82 151C54.7 151 27.3 151 13.7 151L0 151Z" fill="#5a2838"></path><path d="M0 132L13.7 130.8C27.3 129.7 54.7 127.3 82 124.3C109.3 121.3 136.7 117.7 163.8 114.8C191 112 218 110 245.2 112.3C272.3 114.7 299.7 121.3 327 122.2C354.3 123 381.7 118 409 117.3C436.3 116.7 463.7 120.3 491 124.5C518.3 128.7 545.7 133.3 573 135.8C600.3 138.3 627.7 138.7 654.8 136.5C682 134.3 709 129.7 736.2 125.7C763.3 121.7 790.7 118.3 818 117.5C845.3 116.7 872.7 118.3 886.3 119.2L900 120L900 151L886.3 151C872.7 151 845.3 151 818 151C790.7 151 763.3 151 736.2 151C709 151 682 151 654.8 151C627.7 151 600.3 151 573 151C545.7 151 518.3 151 491 151C463.7 151 436.3 151 409 151C381.7 151 354.3 151 327 151C299.7 151 272.3 151 245.2 151C218 151 191 151 163.8 151C136.7 151 109.3 151 82 151C54.7 151 27.3 151 13.7 151L0 151Z" fill="#46262f"></path><path d="M0 132L13.7 129.5C27.3 127 54.7 122 82 123.3C109.3 124.7 136.7 132.3 163.8 133C191 133.7 218 127.3 245.2 125C272.3 122.7 299.7 124.3 327 127C354.3 129.7 381.7 133.3 409 135.8C436.3 138.3 463.7 139.7 491 135.8C518.3 132 545.7 123 573 122.5C600.3 122 627.7 130 654.8 130.7C682 131.3 709 124.7 736.2 122.5C763.3 120.3 790.7 122.7 818 122.7C845.3 122.7 872.7 120.3 886.3 119.2L900 118L900 151L886.3 151C872.7 151 845.3 151 818 151C790.7 151 763.3 151 736.2 151C709 151 682 151 654.8 151C627.7 151 600.3 151 573 151C545.7 151 518.3 151 491 151C463.7 151 436.3 151 409 151C381.7 151 354.3 151 327 151C299.7 151 272.3 151 245.2 151C218 151 191 151 163.8 151C136.7 151 109.3 151 82 151C54.7 151 27.3 151 13.7 151L0 151Z" fill="#322226"></path><path d="M0 136L13.7 136.3C27.3 136.7 54.7 137.3 82 138.5C109.3 139.7 136.7 141.3 163.8 140.8C191 140.3 218 137.7 245.2 138.7C272.3 139.7 299.7 144.3 327 146.3C354.3 148.3 381.7 147.7 409 144.5C436.3 141.3 463.7 135.7 491 132.2C518.3 128.7 545.7 127.3 573 129C600.3 130.7 627.7 135.3 654.8 137.3C682 139.3 709 138.7 736.2 137C763.3 135.3 790.7 132.7 818 132.5C845.3 132.3 872.7 134.7 886.3 135.8L900 137L900 151L886.3 151C872.7 151 845.3 151 818 151C790.7 151 763.3 151 736.2 151C709 151 682 151 654.8 151C627.7 151 600.3 151 573 151C545.7 151 518.3 151 491 151C463.7 151 436.3 151 409 151C381.7 151 354.3 151 327 151C299.7 151 272.3 151 245.2 151C218 151 191 151 163.8 151C136.7 151 109.3 151 82 151C54.7 151 27.3 151 13.7 151L0 151Z" fill="#1e1e1e"></path></svg>